<svg width="18" height="18" viewBox="0 0 18 18" fill="none" xmlns="http://www.w3.org/2000/svg">
<path d="M9 17C13.4184 17 17 13.4184 17 9C17 4.5816 13.4184 1 9 1C4.5816 1 1 4.5816 1 9C1 13.4184 4.5816 17 9 17Z" fill="#F9F4F4" stroke="#333333" stroke-width="2" stroke-linecap="round" stroke-linejoin="round"/>
<path d="M9.0001 11.4C9.63662 11.4 10.2471 11.1471 10.6972 10.6971C11.1472 10.247 11.4001 9.63653 11.4001 9.00001C11.4001 8.36349 11.1472 7.75304 10.6972 7.30295C10.2471 6.85286 9.63662 6.60001 9.0001 6.60001C8.36358 6.60001 7.75313 6.85286 7.30304 7.30295C6.85295 7.75304 6.6001 8.36349 6.6001 9.00001C6.6001 9.63653 6.85295 10.247 7.30304 10.6971C7.75313 11.1471 8.36358 11.4 9.0001 11.4Z" fill="#F9F4F4" stroke="#333333" stroke-width="2" stroke-linecap="round" stroke-linejoin="round"/>
<path d="M1 9.00002H6.6H1ZM11.4 9.00002H17H11.4Z" fill="#F9F4F4"/>
<path d="M1 9.00002H6.6M11.4 9.00002H17" stroke="#333333" stroke-width="2"/>
</svg>
